<?xml version="1.0" encoding="UTF-8"?>
<svg width="56px" height="56px" viewBox="0 0 56 56" version="1.1" xmlns="http://www.w3.org/2000/svg" xmlns:xlink="http://www.w3.org/1999/xlink">
    <!-- Generator: Sketch 50 (54983) - http://www.bohemiancoding.com/sketch -->
    <title>报增单</title>
    <desc>Created with Sketch.</desc>
    <defs>
        <linearGradient x1="23.7300647%" y1="0%" x2="73.0533245%" y2="100%" id="linearGradient-1">
            <stop stop-color="#DEABFD" offset="0%"></stop>
            <stop stop-color="#FFC0E0" offset="100%"></stop>
        </linearGradient>
        <path d="M13.8950525,13.2391304 C11.9248376,13.2391304 10.1785107,14.3347826 9.2381809,15.9782609 L3.14842579,15.9782609 C2.87976012,15.9782609 2.70064968,16.1608696 2.70064968,16.4347826 C2.70064968,16.7086957 2.87976012,16.8913043 3.14842579,16.8913043 L8.8351824,16.8913043 C8.65607196,17.4847826 8.52173913,18.0782609 8.52173913,18.7173913 C8.52173913,19.9043478 8.87996003,21 9.55162419,21.9130435 L1.35732135,21.9130435 C0.596101949,21.9130435 0.0139930105,21.3195652 0.0139930105,20.5434783 L0.0139930105,4.10869565 C0.0139930105,3.33260869 0.596101949,2.73913043 1.35732135,2.73913043 L5.07386306,2.73913043 C5.47686156,2.73913043 5.83508246,2.46521739 5.92463769,2.05434783 C6.23808096,0.867391297 7.26796602,0 8.52173913,0 C9.77551224,0 10.8053973,0.867391297 11.1188406,2.05434783 C11.2083958,2.46521739 11.5666167,2.73913043 11.9696152,2.73913043 L15.6861569,2.73913043 C16.4473763,2.73913043 17.0294853,3.33260869 17.0294853,4.10869565 L17.0294853,14.2891304 C16.133933,13.6043478 15.0592704,13.2391304 13.8950525,13.2391304 Z M3.14842579,12.7826087 L12.103948,12.7826087 C12.3726137,12.7826087 12.5517241,12.6 12.5517241,12.326087 C12.5517241,12.0521739 12.3726137,11.8695652 12.103948,11.8695652 L3.14842579,11.8695652 C2.87976012,11.8695652 2.70064968,12.0521739 2.70064968,12.326087 C2.70064968,12.6 2.87976012,12.7826087 3.14842579,12.7826087 Z M9.41729136,2.73913043 L7.6261869,2.73913043 C7.35752123,2.73913043 7.17841079,2.92173912 7.17841079,3.19565217 C7.17841079,3.46956521 7.35752123,3.6521739 7.6261869,3.65217392 L9.41729136,3.65217392 C9.68595703,3.65217392 9.86506747,3.46956523 9.86506747,3.19565217 C9.86506747,2.9217391 9.68595703,2.73913043 9.41729136,2.73913043 Z M13.8950525,7.76086957 L3.14842579,7.76086957 C2.87976012,7.76086957 2.70064968,7.94347826 2.70064968,8.2173913 C2.70064968,8.49130435 2.87976012,8.67391304 3.14842579,8.67391304 L13.8950525,8.67391304 C14.1637181,8.67391304 14.3428286,8.49130435 14.3428286,8.2173913 C14.3428286,7.94347826 14.1637181,7.76086957 13.8950525,7.76086957 Z" id="path-2"></path>
        <filter x="-17.6%" y="-13.7%" width="135.3%" height="127.4%" filterUnits="objectBoundingBox" id="filter-3">
            <feOffset dx="0" dy="0" in="SourceAlpha" result="shadowOffsetOuter1"></feOffset>
            <feGaussianBlur stdDeviation="1" in="shadowOffsetOuter1" result="shadowBlurOuter1"></feGaussianBlur>
            <feColorMatrix values="0 0 0 0 0   0 0 0 0 0   0 0 0 0 0  0 0 0 0.101477582 0" type="matrix" in="shadowBlurOuter1"></feColorMatrix>
        </filter>
    </defs>
    <g id="1280x1024" stroke="none" stroke-width="1" fill="none" fill-rule="evenodd">
        <g id="2C磁铁页面" transform="translate(-741.000000, -359.000000)">
            <g id="磁条" transform="translate(112.000000, 295.000000)">
                <g id="资产标签打印-copy" transform="translate(629.000000, 64.000000)">
                    <g id="报增单">
                        <circle id="Oval" fill="url(#linearGradient-1)" opacity="0.099999994" cx="28" cy="28" r="28"></circle>
                        <circle id="Oval" fill="url(#linearGradient-1)" opacity="0.199999988" cx="28" cy="28" r="23.1304348"></circle>
                        <circle id="Oval" fill="url(#linearGradient-1)" cx="28" cy="28" r="18.2608696"></circle>
                        <g id="单据-错误" transform="translate(19.478261, 17.043478)">
                            <g id="Shape" fill-rule="nonzero">
                                <use fill="black" fill-opacity="1" filter="url(#filter-3)" xlink:href="#path-2"></use>
                                <use fill="#FFFFFF" fill-rule="evenodd" xlink:href="#path-2"></use>
                            </g>
                            <path d="M13.3913043,18.2608696 L13.3913043,15.2173913 C13.3913043,14.881218 13.6638267,14.6086957 14,14.6086957 C14.3361733,14.6086957 14.6086957,14.881218 14.6086957,15.2173913 L14.6086957,18.2608696 L17.6521739,18.2608696 C17.9883472,18.2608696 18.2608696,18.5333919 18.2608696,18.8695652 C18.2608696,19.2057385 17.9883472,19.4782609 17.6521739,19.4782609 L14.6086957,19.4782609 L14.6086957,22.5217391 C14.6086957,22.8579125 14.3361733,23.1304348 14,23.1304348 C13.6638267,23.1304348 13.3913043,22.8579125 13.3913043,22.5217391 L13.3913043,19.4782609 L10.3478261,19.4782609 C10.0116528,19.4782609 9.73913043,19.2057385 9.73913043,18.8695652 C9.73913043,18.5333919 10.0116528,18.2608696 10.3478261,18.2608696 L13.3913043,18.2608696 Z" id="Combined-Shape" fill="#FFFFFF"></path>
                        </g>
                    </g>
                </g>
            </g>
        </g>
    </g>
</svg>