<?xml version="1.0" encoding="UTF-8"?>
<svg width="30px" height="30px" viewBox="0 0 30 30" version="1.1" xmlns="http://www.w3.org/2000/svg" xmlns:xlink="http://www.w3.org/1999/xlink">
    <!-- Generator: Sketch 50 (54983) - http://www.bohemiancoding.com/sketch -->
    <title>默认头像</title>
    <desc>Created with Sketch.</desc>
    <defs></defs>
    <g id="1280x1024" stroke="none" stroke-width="1" fill="none" fill-rule="evenodd">
        <g id="3Z资产卡片-0" transform="translate(-1121.000000, -17.000000)">
            <g id="Group-14" transform="translate(993.000000, 13.000000)">
                <g id="默认头像" transform="translate(128.000000, 4.000000)">
                    <g id="Group-10">
                        <circle id="Oval-11" fill="#1A6E5C" cx="15" cy="15" r="15"></circle>
                        <path d="M15,22.514515 C18.0794268,22.514515 19.5,21.9495484 19.5,21.0259987 C19.5,20.7522824 19.2317489,20.4138485 18.7273633,20.0503081 C18.544457,19.9184768 18.4185344,19.838871 18.086709,19.6378549 C17.9588037,19.5603714 17.8960327,19.5210902 17.8372469,19.4800039 C17.6126448,19.323026 17.5394367,19.2519175 17.5394367,18.9866494 C17.5394367,18.7503961 17.5320503,18.5283275 17.5148436,18.1649908 C17.4693261,17.2038389 17.4693261,17.054964 17.5822482,16.7999315 L17.6488213,16.6902423 C19.1021577,14.8714114 19.5,13.6766574 19.5,12 C19.5,9.51471863 17.4852814,7.5 15,7.5 C12.5147186,7.5 10.5,9.51471863 10.5,12 C10.5,13.9544471 10.8088746,14.9355472 12.3857528,16.6655412 L12.4477919,16.7498758 C12.5898756,16.9927336 12.5898756,17.0959602 12.5405698,18.1775999 C12.5330755,18.3420056 12.5286189,18.447402 12.524819,18.5561586 C12.5191549,18.7182703 12.516225,18.8585302 12.516225,18.9866494 C12.516225,19.2468002 12.4448,19.3184775 12.2240919,19.4793398 C12.1632268,19.5237012 12.0932652,19.5693846 11.9676361,19.6485009 C11.5702812,19.8987392 11.4891406,19.9512972 11.3012459,20.087273 C10.7807876,20.4639187 10.5,20.8012342 10.5,21.0259987 C10.5,21.9495484 11.9205732,22.514515 15,22.514515 Z M11.5184529,18.8769148 C11.5167806,18.9068177 11.516225,18.9427203 11.516225,18.9866494 C11.516225,18.9496037 11.5164431,18.9118448 11.5168741,18.8731717 Z M18.5392593,18.9204242 C18.5393781,18.9424099 18.5394367,18.9644493 18.5394367,18.9866494 C18.5394367,18.941459 18.5387402,18.9044344 18.5367872,18.8735284 Z M18.4217383,18.6685095 C18.4179808,18.6658602 18.4141067,18.6631461 18.4101125,18.6603545 C18.4216688,18.6684314 18.4353235,18.6775358 18.4525065,18.6885757 Z" id="Oval-12" stroke="#0E5848" fill="#FFFFFF"></path>
                    </g>
                </g>
            </g>
        </g>
    </g>
</svg>