<?xml version="1.0" encoding="UTF-8"?>
<svg width="56px" height="56px" viewBox="0 0 56 56" version="1.1" xmlns="http://www.w3.org/2000/svg" xmlns:xlink="http://www.w3.org/1999/xlink">
    <!-- Generator: Sketch 50 (54983) - http://www.bohemiancoding.com/sketch -->
    <title>一般信息变动单</title>
    <desc>Created with Sketch.</desc>
    <defs>
        <linearGradient x1="23.7300647%" y1="-1.04083409e-15%" x2="73.0533245%" y2="100%" id="linearGradient-1">
            <stop stop-color="#00D9E4" offset="0%"></stop>
            <stop stop-color="#00F0B3" offset="100%"></stop>
        </linearGradient>
        <path d="M31.8319967,30.2019107 C32.7991931,30.2019107 33.7077716,30.5919447 34.3965326,31.2970062 L34.8068584,31.7020415 L37.0196865,29.4518453 L37.0196865,21.2461299 C37.0196865,19.6109873 35.7007823,18.2608696 34.1034428,18.2608696 L22.3945046,18.2608696 C20.7825106,18.2608696 19.4782609,19.6109873 19.4782609,21.2461299 L19.4782609,34.6723005 C19.4782609,36.3074431 20.7971651,37.6575608 22.3945046,37.6575608 C22.3945046,37.6575608 27.5968488,37.6575608 28.2709554,37.6575608 C29.1209159,37.6575608 29.3553878,36.8774928 28.8571351,36.0374196 C27.9778656,34.5072861 27.9925201,32.5871187 29.2528063,31.2820049 C29.9562219,30.5919447 30.8501458,30.2019107 31.8319967,30.2019107 Z M24.5926782,22.7462607 L31.9052692,22.7462607 C32.3155949,22.7462607 32.6379937,23.0762894 32.6379937,23.4963261 C32.6379937,23.9163627 32.3155949,24.2463915 31.9052692,24.2463915 L24.5926782,24.2463915 C24.1823525,24.2463915 23.8599537,23.9163627 23.8599537,23.4963261 C23.8599537,23.0762894 24.1823525,22.7462607 24.5926782,22.7462607 Z M26.0434728,33.187171 L24.5780237,33.187171 C24.167698,33.187171 23.8452992,32.8571423 23.8452992,32.4371056 C23.8452992,32.017069 24.167698,31.6870402 24.5780237,31.6870402 L26.0434728,31.6870402 C26.4537986,31.6870402 26.7761974,32.017069 26.7761974,32.4371056 C26.7761974,32.8571423 26.4537986,33.187171 26.0434728,33.187171 Z M24.5926782,28.7167812 C24.1823525,28.7167812 23.8599537,28.3867525 23.8599537,27.9667158 C23.8599537,27.5466792 24.1823525,27.2166504 24.5926782,27.2166504 L31.9052692,27.2166504 C32.3155949,27.2166504 32.6379937,27.5466792 32.6379937,27.9667158 C32.6379937,28.3867525 32.3155949,28.7167812 31.9052692,28.7167812 L24.5926782,28.7167812 Z M37.3165624,35.946865 C37.2239298,35.9125654 37.1243059,35.8971586 37.0245679,35.9017083 L31.0984065,35.9017083 C30.7318971,35.9017083 30.4347826,36.174916 30.4347826,36.5119347 C30.4347826,36.8489535 30.7318971,37.1221611 31.0984065,37.1221611 L35.4331978,37.1221611 L34.6142859,37.8751805 C34.345268,38.1225523 34.345268,38.5236212 34.6142859,38.7709929 C34.8833038,39.0183647 35.3194679,39.0183647 35.5884858,38.7709929 L37.5382128,36.9781477 C37.7000932,36.8287716 37.7705126,36.6151104 37.7260486,36.4082304 C37.6815845,36.2013505 37.5280687,36.0283852 37.3165624,35.946865 Z M37.0723488,33.4608026 L32.7534845,33.4608026 L33.5710691,32.7077832 C33.8129831,32.4568299 33.800812,32.0761204 33.543284,31.8386679 C33.2857559,31.6012153 32.8717675,31.5889862 32.5981965,31.8107503 L30.651124,33.604816 C30.4898875,33.7544494 30.4198999,33.9678972 30.4643145,34.1745468 C30.508729,34.3811963 30.6617572,34.5541153 30.8727744,34.6360987 C30.9656817,34.6714918 31.0652253,34.6849168 31.1647689,34.6812554 L37.0723488,34.6812554 C37.4388582,34.6812554 37.7359727,34.4080478 37.7359727,34.071029 C37.7359727,33.7340103 37.4388582,33.4608026 37.0723488,33.4608026 Z" id="path-2"></path>
        <filter x="-16.4%" y="-14.5%" width="132.9%" height="129.0%" filterUnits="objectBoundingBox" id="filter-3">
            <feOffset dx="0" dy="0" in="SourceAlpha" result="shadowOffsetOuter1"></feOffset>
            <feGaussianBlur stdDeviation="1" in="shadowOffsetOuter1" result="shadowBlurOuter1"></feGaussianBlur>
            <feColorMatrix values="0 0 0 0 0   0 0 0 0 0   0 0 0 0 0  0 0 0 0.101477582 0" type="matrix" in="shadowBlurOuter1"></feColorMatrix>
        </filter>
    </defs>
    <g id="1280x1024" stroke="none" stroke-width="1" fill="none" fill-rule="evenodd">
        <g id="2C磁铁页面" transform="translate(-531.000000, -569.000000)">
            <g id="磁条" transform="translate(112.000000, 295.000000)">
                <g id="一般信息变动单" transform="translate(419.000000, 274.000000)">
                    <g id="Group-3">
                        <g id="Group" fill="url(#linearGradient-1)">
                            <circle id="Oval" opacity="0.099999994" cx="28" cy="28" r="28"></circle>
                            <circle id="Oval" opacity="0.199999988" cx="28" cy="28" r="23.1304348"></circle>
                            <circle id="Oval" cx="28" cy="28" r="18.2608696"></circle>
                        </g>
                        <g id="Shape" fill-rule="nonzero">
                            <use fill="black" fill-opacity="1" filter="url(#filter-3)" xlink:href="#path-2"></use>
                            <use fill="#FFFFFF" fill-rule="evenodd" xlink:href="#path-2"></use>
                        </g>
                    </g>
                    <g id="人员变动分析" transform="translate(32.000000, 29.000000)"></g>
                </g>
            </g>
        </g>
    </g>
</svg>