<?xml version="1.0" encoding="UTF-8"?>
<svg width="56px" height="56px" viewBox="0 0 56 56" version="1.1" xmlns="http://www.w3.org/2000/svg" xmlns:xlink="http://www.w3.org/1999/xlink">
    <!-- Generator: Sketch 50 (54983) - http://www.bohemiancoding.com/sketch -->
    <title>调剂单</title>
    <desc>Created with Sketch.</desc>
    <defs>
        <linearGradient x1="23.7300647%" y1="-1.04083409e-15%" x2="73.0533245%" y2="100%" id="linearGradient-1">
            <stop stop-color="#8EA1FF" offset="0%"></stop>
            <stop stop-color="#98CEFF" offset="100%"></stop>
        </linearGradient>
    </defs>
    <g id="1280x1024" stroke="none" stroke-width="1" fill="none" fill-rule="evenodd">
        <g id="2C磁铁页面" transform="translate(-951.000000, -359.000000)">
            <g id="磁条" transform="translate(112.000000, 295.000000)">
                <g id="调剂单" transform="translate(839.000000, 64.000000)">
                    <g id="Group" fill="url(#linearGradient-1)">
                        <circle id="Oval" opacity="0.099999994" cx="28" cy="28" r="28"></circle>
                        <circle id="Oval" opacity="0.199999988" cx="28" cy="28" r="23.1304348"></circle>
                        <circle id="Oval" cx="28" cy="28" r="18.2608696"></circle>
                    </g>
                    <path d="M35.4082556,35.3043478 C35.6589387,34.5951003 36.3353451,34.0869565 37.1304348,34.0869565 C38.1389548,34.0869565 38.9565217,34.9045235 38.9565217,35.9130435 C38.9565217,36.9215635 38.1389548,37.7391304 37.1304348,37.7391304 C36.3353451,37.7391304 35.6589387,37.2309867 35.4082556,36.5217391 L32.2608696,36.5217391 C31.9246962,36.5217391 31.6521739,36.2492168 31.6521739,35.9130435 C31.6521739,35.5768702 31.9246962,35.3043478 32.2608696,35.3043478 L35.4082556,35.3043478 Z M35.20044,31.6521739 L38.3478261,31.6521739 C38.6839994,31.6521739 38.9565217,31.9246962 38.9565217,32.2608696 C38.9565217,32.5970429 38.6839994,32.8695652 38.3478261,32.8695652 L35.20044,32.8695652 C34.949757,33.5788127 34.2733506,34.0869565 33.4782609,34.0869565 C32.4697409,34.0869565 31.6521739,33.2693895 31.6521739,32.2608696 C31.6521739,31.2523496 32.4697409,30.4347826 33.4782609,30.4347826 C34.2733506,30.4347826 34.949757,30.9429264 35.20044,31.6521739 Z M37.7279281,28.0991225 C37.3355538,28.0339235 36.9326081,28 36.5217391,28 C32.4876592,28 29.2173913,31.2702679 29.2173913,35.3043478 C29.2173913,36.1580689 29.3638538,36.9775817 29.6330226,37.7391304 L20.521099,37.7391304 C19.947538,37.7391304 19.4782609,37.2804853 19.4782609,36.7199191 L19.4782609,19.9029323 C19.4782609,19.342366 19.947538,18.8837209 20.521099,18.8837209 L23.6496134,18.8837209 L23.6496134,18.3741153 C23.6496134,17.813549 24.1188905,17.3549039 24.6924515,17.3549039 L26.2567087,17.3549039 L26.2567087,16.8452983 C26.2567087,16.284732 26.7259858,15.826087 27.2995468,15.826087 L29.9066421,15.826087 C30.4802031,15.826087 30.9494803,16.284732 30.9494803,16.8452983 L30.9494803,17.3549039 L32.5137374,17.3549039 C33.0872984,17.3549039 33.5565756,17.813549 33.5565756,18.3741153 L33.5565756,18.8837209 L36.6850899,18.8837209 C37.2586509,18.8837209 37.7279281,19.342366 37.7279281,19.9029323 L37.7279281,28.0991225 Z M29.1245135,30.1969666 C29.437365,30.1969666 29.6459326,29.9931244 29.6459326,29.687361 C29.6459326,29.3815976 29.437365,29.1777553 29.1245135,29.1777553 L24.431742,29.1777553 C24.1188905,29.1777553 23.9103229,29.3815976 23.9103229,29.687361 C23.9103229,29.9931244 24.1188905,30.1969666 24.431742,30.1969666 L29.1245135,30.1969666 Z M32.774447,26.629727 C33.0872984,26.629727 33.295866,26.4258847 33.295866,26.1201213 C33.295866,25.8143579 33.0872984,25.6105157 32.774447,25.6105157 L24.431742,25.6105157 C24.1188905,25.6105157 23.9103229,25.8143579 23.9103229,26.1201213 C23.9103229,26.4258847 24.1188905,26.629727 24.431742,26.629727 L32.774447,26.629727 Z" id="Combined-Shape" fill="#FFFFFF" fill-rule="nonzero"></path>
                </g>
            </g>
        </g>
    </g>
</svg>