<?xml version="1.0" encoding="UTF-8"?>
<svg width="24px" height="24px" viewBox="0 0 24 24" version="1.1" xmlns="http://www.w3.org/2000/svg" xmlns:xlink="http://www.w3.org/1999/xlink">
    <!-- Generator: Sketch 50 (54983) - http://www.bohemiancoding.com/sketch -->
    <title>退出@2x</title>
    <desc>Created with Sketch.</desc>
    <defs></defs>
    <g id="1280x1024" stroke="none" stroke-width="1" fill="none" fill-rule="evenodd">
        <g id="3Z资产卡片-0" transform="translate(-1236.000000, -20.000000)" fill="#FFFFFF" fill-rule="nonzero">
            <g id="Group-14" transform="translate(993.000000, 13.000000)">
                <g id="退出-#8f8f8f-&amp;-14px" transform="translate(243.000000, 7.000000)">
                    <path d="M11.5,24 C5.70078145,24 1,19.1314677 1,13.1252998 C1,8.58023986 3.69447946,4.68486579 7.51651122,3.0620217 L7.51651122,3.06476299 C7.63032518,3.02364363 7.75207966,3.00171331 7.8791278,3.00171331 C8.47731283,3.00171331 8.96697756,3.50611079 8.96697756,4.12564249 C8.96697756,4.61359223 8.66523822,5.03300971 8.24174439,5.18652199 C5.26405344,6.49960023 3.17305268,9.55888064 3.17305268,13.1252998 C3.17305268,17.889663 6.89979834,21.7494003 11.5,21.7494003 C16.1002017,21.7494003 19.8269473,17.8869218 19.8269473,13.1252998 C19.8269473,9.56162193 17.7385934,6.49960023 14.7582556,5.18652199 C14.3347618,5.03300971 14.0356693,4.61359223 14.0356693,4.12564249 C14.0356693,3.5033695 14.5200403,3.00171331 15.1208722,3.00171331 C15.2479203,3.00171331 15.367028,3.02364363 15.4834888,3.06476299 L15.4834888,3.0620217 C19.3081674,4.68760708 22,8.58023986 22,13.1252998 C22,19.1314677 17.2992186,24 11.5,24 Z M11.5,12.3769275 C10.901815,12.3769275 10.4147971,11.87253 10.4147971,11.250257 L10.4147971,1.12392918 C10.4147971,0.504397487 10.901815,0 11.5,0 C12.1008319,0 12.5852029,0.504397487 12.5852029,1.12392918 L12.5852029,11.2475157 C12.5852029,11.87253 12.1008319,12.3769275 11.5,12.3769275 Z" id="Shape"></path>
                </g>
            </g>
        </g>
    </g>
</svg>