<?xml version="1.0" encoding="UTF-8"?>
<svg width="40px" height="38px" viewBox="0 0 40 38" version="1.1" xmlns="http://www.w3.org/2000/svg" xmlns:xlink="http://www.w3.org/1999/xlink">
    <!-- Generator: Sketch 50 (54983) - http://www.bohemiancoding.com/sketch -->
    <title>个人资产查询</title>
    <desc>Created with Sketch.</desc>
    <defs></defs>
    <g id="1280x1024" stroke="none" stroke-width="1" fill="none" fill-rule="evenodd">
        <g id="2C磁铁页面" transform="translate(-185.000000, -494.000000)" fill="#FFFFFF" fill-rule="nonzero">
            <g id="磁条" transform="translate(112.000000, 295.000000)">
                <g id="个人资产查询" transform="translate(0.000000, 27.000000)">
                    <g id="个人资产查询图标" transform="translate(73.000000, 172.000000)">
                        <path d="M12,19.9988342 C12,21.1092976 11.3773585,21.9976684 10.5849056,21.9976684 L1.41509435,21.9976684 C0.62264152,22.0531915 0,21.1092976 0,19.9988342 C0,18.8883707 0.62264152,18 1.41509435,18 L10.5849056,18 C11.3773585,18 12,18.8883707 12,19.9988342 Z M12,12.0011658 C12,13.1116293 11.3773585,14 10.5849056,14 L1.41509435,14 C0.62264152,14 0,13.1116292 0,12.0011658 C0,10.8907024 0.62264152,10.0023316 1.41509435,10.0023316 L10.5849056,10.0023316 C11.3773585,9.94680848 12,10.8907024 12,12.0011658 Z M12,36 C12,37.1111111 11.3773585,38 10.5849056,38 L1.41509435,38 C0.62264152,38 0,37.1111111 0,36 C0,34.8888889 0.62264152,34 1.41509435,34 L10.5849056,34 C11.3773585,34 12,34.8888889 12,36 Z M12,28 C12,29.1111111 11.3773585,30 10.5849056,30 L1.41509435,30 C0.62264152,30 0,29.1111111 0,28 C0,26.8888889 0.62264152,26 1.41509435,26 L10.5849056,26 C11.3773585,26 12,26.8888889 12,28 Z M24.5915493,38 L15.4084507,38 C14.6197183,38 14,37.1111111 14,36 C14,34.8888889 14.6197183,34 15.4084507,34 L24.5352113,34 C25.3239437,34 26,34.8888889 26,36 C26,37.1111111 25.3802817,38 24.5915493,38 Z M26,28 C26,29.1111111 25.3802817,30 24.5915493,30 L15.4084507,30 C14.6197183,30 14,29.1111111 14,28 C14,26.8888889 14.6197183,26 15.4084507,26 L24.5352113,26 C25.3239437,26 26,26.8888889 26,28 Z M26,20 C26,21.1111111 25.3802817,22 24.5915493,22 L15.4084507,22 C14.6197183,22 14,21.1111111 14,20 C14,18.8888889 14.6197183,18 15.4084507,18 L24.5352113,18 C25.3239437,18 26,18.8888889 26,20 Z M26,12 C26,13.1111111 25.3773585,14 24.5849056,14 L15.4150944,14 C14.6226415,14 14,13.1111111 14,12 C14,10.8888889 14.6226415,10 15.4150944,10 L24.5849056,10 C25.3207547,10 26,10.8888889 26,12 Z M26,4.00116582 C26,5.11162928 25.3802817,6 24.5915493,6 L15.4084507,6 C14.6197183,6 14,5.11162924 14,4.00116582 C14,2.89070236 14.6197183,2.00233164 15.4084507,2.00233164 L24.5352113,2.00233164 C25.3239437,1.94680844 26,2.89070236 26,4.00116582 Z M40,36 C40,37.1111111 39.3773585,38 38.5849056,38 L29.4150944,38 C28.6226415,38 28,37.1111111 28,36 C28,34.8888889 28.6226415,34 29.4150944,34 L38.5849056,34 C39.3773585,34 40,34.8888889 40,36 Z M40,28 C40,29.1111111 39.3773585,30 38.5849056,30 L29.4150944,30 C28.6226415,30 28,29.1111111 28,28 C28,26.8888889 28.6226415,26 29.4150944,26 L38.5849056,26 C39.3773585,26 40,26.8888889 40,28 Z" id="Shape" opacity="0.200000018"></path>
                        <path d="M12,18.9988342 C12,20.1092976 11.3773585,20.9976684 10.5849056,20.9976684 L1.41509435,20.9976684 C0.62264152,21.0531915 0,20.1092976 0,18.9988342 C0,17.8883707 0.62264152,17 1.41509435,17 L10.5849056,17 C11.3773585,17 12,17.8883707 12,18.9988342 Z M12,11.0011658 C12,12.1116293 11.3773585,13 10.5849056,13 L1.41509435,13 C0.62264152,13 0,12.1116292 0,11.0011658 C0,9.89070235 0.62264152,9.00233163 1.41509435,9.00233163 L10.5849056,9.00233163 C11.3773585,8.94680848 12,9.89070239 12,11.0011658 Z M12,35 C12,36.1111111 11.3773585,37 10.5849056,37 L1.41509435,37 C0.62264152,37 0,36.1111111 0,35 C0,33.8888889 0.62264152,33 1.41509435,33 L10.5849056,33 C11.3773585,33 12,33.8888889 12,35 Z M12,27 C12,28.1111111 11.3773585,29 10.5849056,29 L1.41509435,29 C0.62264152,29 0,28.1111111 0,27 C0,25.8888889 0.62264152,25 1.41509435,25 L10.5849056,25 C11.3773585,25 12,25.8888889 12,27 Z M24.5915493,37 L15.4084507,37 C14.6197183,37 14,36.1111111 14,35 C14,33.8888889 14.6197183,33 15.4084507,33 L24.5352113,33 C25.3239437,33 26,33.8888889 26,35 C26,36.1111111 25.3802817,37 24.5915493,37 Z M26,27 C26,28.1111111 25.3802817,29 24.5915493,29 L15.4084507,29 C14.6197183,29 14,28.1111111 14,27 C14,25.8888889 14.6197183,25 15.4084507,25 L24.5352113,25 C25.3239437,25 26,25.8888889 26,27 Z M26,19 C26,20.1111111 25.3802817,21 24.5915493,21 L15.4084507,21 C14.6197183,21 14,20.1111111 14,19 C14,17.8888889 14.6197183,17 15.4084507,17 L24.5352113,17 C25.3239437,17 26,17.8888889 26,19 Z M26,11 C26,12.1111111 25.3773585,13 24.5849056,13 L15.4150944,13 C14.6226415,13 14,12.1111111 14,11 C14,9.88888886 14.6226415,9 15.4150944,9 L24.5849056,9 C25.3207547,9 26,9.8888889 26,11 Z M26,3.00116582 C26,4.11162928 25.3802817,5 24.5915493,5 L15.4084507,5 C14.6197183,5 14,4.11162924 14,3.00116582 C14,1.89070236 14.6197183,1.00233164 15.4084507,1.00233164 L24.5352113,1.00233164 C25.3239437,0.946808441 26,1.89070236 26,3.00116582 Z M40,35 C40,36.1111111 39.3773585,37 38.5849056,37 L29.4150944,37 C28.6226415,37 28,36.1111111 28,35 C28,33.8888889 28.6226415,33 29.4150944,33 L38.5849056,33 C39.3773585,33 40,33.8888889 40,35 Z M40,27 C40,28.1111111 39.3773585,29 38.5849056,29 L29.4150944,29 C28.6226415,29 28,28.1111111 28,27 C28,25.8888889 28.6226415,25 29.4150944,25 L38.5849056,25 C39.3773585,25 40,25.8888889 40,27 Z" id="Shape" opacity="0.396399457"></path>
                        <path d="M12,17.9988342 C12,19.1092976 11.3773585,19.9976684 10.5849056,19.9976684 L1.41509435,19.9976684 C0.62264152,20.0531915 0,19.1092976 0,17.9988342 C0,16.8883707 0.62264152,16 1.41509435,16 L10.5849056,16 C11.3773585,16 12,16.8883707 12,17.9988342 Z M12,10.0011658 C12,11.1116293 11.3773585,12 10.5849056,12 L1.41509435,12 C0.62264152,12 0,11.1116292 0,10.0011658 C0,8.89070235 0.62264152,8.00233163 1.41509435,8.00233163 L10.5849056,8.00233163 C11.3773585,7.94680848 12,8.89070239 12,10.0011658 Z M12,34 C12,35.1111111 11.3773585,36 10.5849056,36 L1.41509435,36 C0.62264152,36 0,35.1111111 0,34 C0,32.8888889 0.62264152,32 1.41509435,32 L10.5849056,32 C11.3773585,32 12,32.8888889 12,34 Z M12,26 C12,27.1111111 11.3773585,28 10.5849056,28 L1.41509435,28 C0.62264152,28 0,27.1111111 0,26 C0,24.8888889 0.62264152,24 1.41509435,24 L10.5849056,24 C11.3773585,24 12,24.8888889 12,26 Z M24.5915493,36 L15.4084507,36 C14.6197183,36 14,35.1111111 14,34 C14,32.8888889 14.6197183,32 15.4084507,32 L24.5352113,32 C25.3239437,32 26,32.8888889 26,34 C26,35.1111111 25.3802817,36 24.5915493,36 Z M26,26 C26,27.1111111 25.3802817,28 24.5915493,28 L15.4084507,28 C14.6197183,28 14,27.1111111 14,26 C14,24.8888889 14.6197183,24 15.4084507,24 L24.5352113,24 C25.3239437,24 26,24.8888889 26,26 Z M26,18 C26,19.1111111 25.3802817,20 24.5915493,20 L15.4084507,20 C14.6197183,20 14,19.1111111 14,18 C14,16.8888889 14.6197183,16 15.4084507,16 L24.5352113,16 C25.3239437,16 26,16.8888889 26,18 Z M26,10 C26,11.1111111 25.3773585,12 24.5849056,12 L15.4150944,12 C14.6226415,12 14,11.1111111 14,10 C14,8.88888886 14.6226415,8 15.4150944,8 L24.5849056,8 C25.3207547,8 26,8.8888889 26,10 Z M26,2.00116582 C26,3.11162928 25.3802817,4 24.5915493,4 L15.4084507,4 C14.6197183,4 14,3.11162924 14,2.00116582 C14,0.890702357 14.6197183,0.00233163545 15.4084507,0.00233163545 L24.5352113,0.00233163545 C25.3239437,-0.053191559 26,0.890702357 26,2.00116582 Z M40,34 C40,35.1111111 39.3773585,36 38.5849056,36 L29.4150944,36 C28.6226415,36 28,35.1111111 28,34 C28,32.8888889 28.6226415,32 29.4150944,32 L38.5849056,32 C39.3773585,32 40,32.8888889 40,34 Z M40,26 C40,27.1111111 39.3773585,28 38.5849056,28 L29.4150944,28 C28.6226415,28 28,27.1111111 28,26 C28,24.8888889 28.6226415,24 29.4150944,24 L38.5849056,24 C39.3773585,24 40,24.8888889 40,26 Z" id="Shape"></path>
                        <path d="M29,14.9027791 C29,17.7813065 31.4711252,19.4565571 32.8828132,19.7214821 C32.8828132,19.7131829 32.8828132,19.7432905 32.8828132,19.8118047 L32.8828132,22.9228247 C32.8828132,23.3744376 33.3138291,24 33.9960046,24 C34.6781801,24 35.1093633,23.4647602 35.1093633,22.9228247 L35.1093633,19.8118047 C35.1093633,19.7515896 35.1093633,19.7214821 35.1093633,19.7214821 C36.5889694,19.433527 39,17.821979 39,14.9027791 C39,12.0124565 36.7462663,10 33.9960046,10 C31.2457429,10 29,12.3901968 29,14.9027791 Z M31.2266439,14.8461538 C31.2266439,13.4291498 32.5384463,12.1538462 33.9960046,12.1538462 C35.4535629,12.1538462 36.7653653,13.4291498 36.7653653,14.8461538 C36.7653653,16.2631579 35.4535629,17.5384615 33.9960046,17.5384615 C32.5384463,17.5384615 31.2266439,16.1923077 31.2266439,14.8461538 Z" id="Shape" opacity="0.200000018" transform="translate(34.000000, 17.000000) rotate(-41.000000) translate(-34.000000, -17.000000) "></path>
                        <path d="M29,13.9027791 C29,16.7813065 31.4711252,18.4565571 32.8828132,18.7214821 C32.8828132,18.7131829 32.8828132,18.7432905 32.8828132,18.8118047 L32.8828132,21.9228247 C32.8828132,22.3744376 33.3138291,23 33.9960046,23 C34.6781801,23 35.1093633,22.4647602 35.1093633,21.9228247 L35.1093633,18.8118047 C35.1093633,18.7515896 35.1093633,18.7214821 35.1093633,18.7214821 C36.5889694,18.433527 39,16.821979 39,13.9027791 C39,11.0124565 36.7462663,9 33.9960046,9 C31.2457429,9 29,11.3901968 29,13.9027791 Z M31.2266439,13.8461538 C31.2266439,12.4291498 32.5384463,11.1538462 33.9960046,11.1538462 C35.4535629,11.1538462 36.7653653,12.4291498 36.7653653,13.8461538 C36.7653653,15.2631579 35.4535629,16.5384615 33.9960046,16.5384615 C32.5384463,16.5384615 31.2266439,15.1923077 31.2266439,13.8461538 Z" id="Shape" opacity="0.4" transform="translate(34.000000, 16.000000) rotate(-41.000000) translate(-34.000000, -16.000000) "></path>
                        <path d="M29,12.9027791 C29,15.7813065 31.4711252,17.4565571 32.8828132,17.7214821 C32.8828132,17.7131829 32.8828132,17.7432905 32.8828132,17.8118047 L32.8828132,20.9228247 C32.8828132,21.3744376 33.3138291,22 33.9960046,22 C34.6781801,22 35.1093633,21.4647602 35.1093633,20.9228247 L35.1093633,17.8118047 C35.1093633,17.7515896 35.1093633,17.7214821 35.1093633,17.7214821 C36.5889694,17.433527 39,15.821979 39,12.9027791 C39,10.0124565 36.7462663,8 33.9960046,8 C31.2457429,8 29,10.3901968 29,12.9027791 Z M31.2266439,12.8461538 C31.2266439,11.4291498 32.5384463,10.1538462 33.9960046,10.1538462 C35.4535629,10.1538462 36.7653653,11.4291498 36.7653653,12.8461538 C36.7653653,14.2631579 35.4535629,15.5384615 33.9960046,15.5384615 C32.5384463,15.5384615 31.2266439,14.1923077 31.2266439,12.8461538 Z" id="Shape" transform="translate(34.000000, 15.000000) rotate(-41.000000) translate(-34.000000, -15.000000) "></path>
                    </g>
                </g>
            </g>
        </g>
    </g>
</svg>