<?xml version="1.0" encoding="UTF-8"?>
<svg width="18px" height="18px" viewBox="0 0 18 18" version="1.1" xmlns="http://www.w3.org/2000/svg" xmlns:xlink="http://www.w3.org/1999/xlink">
    <!-- Generator: Sketch 50 (54983) - http://www.bohemiancoding.com/sketch -->
    <title>Rectangle 7</title>
    <desc>Created with Sketch.</desc>
    <defs></defs>
    <g id="1280x1024" stroke="none" stroke-width="1" fill="none" fill-rule="evenodd">
        <g id="1D登录页面" transform="translate(-382.000000, -508.000000)">
            <g id="Group-8" transform="translate(210.000000, 250.000000)">
                <g id="Group-6" transform="translate(160.000000, 187.000000)">
                    <g id="输入">
                        <rect id="Rectangle-3" stroke="#BDC5CA" fill-opacity="0.3" fill="#FFFFFF" x="0.5" y="60.5" width="539" height="39" rx="4"></rect>
                        <g id="锁-2" transform="translate(12.000000, 71.000000)">
                            <rect id="Rectangle-7" x="0" y="0" width="18" height="18"></rect>
                            <path d="M8.9912524,4.54954251 C7.51233363,4.54954251 5.97834249,5.09773055 4.85234752,5.84238932 L4.85234752,4.54954251 C4.85234752,2.48984803 6.80648602,0.923775865 8.9912524,0.923775865 C11.1760188,0.923775865 13.1734592,2.78850946 13.1734592,4.84820395 C13.1734592,5.14923621 13.3589385,5.38508051 13.6782505,5.38508051 C13.9975625,5.38508051 14.1338563,5.14923621 14.1338563,4.84820395 C14.1338563,2.17060112 11.8314487,0 8.9912524,0 C6.15105612,0 3.84864847,2.17060112 3.84864847,4.84820395 L3.84864847,6.85634568 C2.70584758,8.02878716 2,9.68056408 2,11.3916949 C2,15.019926 5.1427024,17.9827173 8.9912524,17.9827173 C12.8398024,17.9827173 15.9825048,15.019926 15.9825048,11.3916949 C15.9825048,7.76346384 12.9574437,4.54954251 8.9912524,4.54954251 Z M8.99999999,17.1 C5.65105972,17.1 2.93333331,14.4793353 2.93333333,11.25 C2.93333336,8.02066475 5.65105972,5.4 8.99999999,5.4 C12.3489403,5.4 15.0666667,8.02066473 15.0666667,11.25 C15.0666667,14.4793353 12.3489403,17.1 8.99999999,17.1 Z" id="Shape" fill="#868686" fill-rule="nonzero"></path>
                            <path d="M8.53333333,13.275 C8.53333333,13.6477922 8.84673401,13.95 9.23333333,13.95 C9.61993266,13.95 9.93333333,13.6477922 9.93333333,13.275 C9.93333333,12.9022078 9.61993266,12.6 9.23333333,12.6 C8.84673401,12.6 8.53333333,12.9022078 8.53333333,13.275 Z" id="Shape" fill="#868686" fill-rule="nonzero"></path>
                            <path d="M8.53333333,11.475 C8.53333333,11.8477922 8.84673401,12.15 9.23333333,12.15 C9.61993266,12.15 9.93333333,11.8477922 9.93333333,11.475 C9.93333333,11.1022078 9.61993266,10.8 9.23333333,10.8 C8.84673401,10.8 8.53333333,11.1022078 8.53333333,11.475 Z" id="Shape" fill="#868686" fill-rule="nonzero"></path>
                            <path d="M8.53333333,9.675 C8.53333333,10.0477922 8.84673401,10.35 9.23333333,10.35 C9.61993266,10.35 9.93333333,10.0477922 9.93333333,9.675 C9.93333333,9.30220779 9.61993266,9 9.23333333,9 C8.84673401,9 8.53333333,9.30220779 8.53333333,9.675 Z" id="Shape" fill="#868686" fill-rule="nonzero"></path>
                        </g>
                    </g>
                </g>
            </g>
        </g>
    </g>
</svg>