<?xml version="1.0" encoding="UTF-8"?>
<svg width="48px" height="48px" viewBox="0 0 48 48" version="1.1" xmlns="http://www.w3.org/2000/svg" xmlns:xlink="http://www.w3.org/1999/xlink">
    <!-- Generator: Sketch 50 (54983) - http://www.bohemiancoding.com/sketch -->
    <title>处置报废单</title>
    <desc>Created with Sketch.</desc>
    <defs>
        <linearGradient x1="24.6945233%" y1="1.95538295%" x2="73.0533245%" y2="100%" id="linearGradient-1">
            <stop stop-color="#D0A1FF" offset="0%"></stop>
            <stop stop-color="#E6C7FF" offset="100%"></stop>
        </linearGradient>
        <path d="M20.7677032,9.13013744 L18.7465865,7.74680342 L18.7465865,17.4291975 C18.7772842,17.6471511 18.7046723,17.8668522 18.5487762,18.0277097 C18.39288,18.1885673 18.1701691,18.2735878 17.9420643,18.2593238 C17.4220683,18.2593238 4.30443227,18.2596385 3.77789539,18.2596385 C3.25789935,18.2596385 2.87853117,17.6614315 2.87853117,17.1529083 L2.87853117,7.4695702 L1.72407454,8.29969647 C1.30873178,8.60588027 0.510750438,9.2100662 0.193520156,8.80947834 C-0.122202947,8.40843091 -0.0434263151,7.83755163 0.370122583,7.52967409 L10.2991036,0.187871101 C10.6374614,-0.0626237004 11.1086616,-0.0626237004 11.4470194,0.187871101 L21.5427916,7.65554618 C21.956507,7.96333155 22.0353028,8.53435018 21.7193941,8.93535042 C21.4021638,9.33593826 21.1797755,9.43663592 20.7677032,9.13013744 Z M15.2518396,11.883712 C15.3437622,11.7909364 15.3944733,11.6650191 15.3913068,11.5324811 C15.3913068,11.3966232 15.3437622,11.2740258 15.2518396,11.1812503 C15.0711701,10.9923791 14.7573758,10.9923791 14.5767064,11.1812503 L13.0647884,12.7618038 L11.5528705,11.1845605 C11.372201,10.9956894 11.0584067,10.9956894 10.8777373,11.1845605 C10.7858239,11.2773361 10.7382793,11.4065735 10.7382793,11.5391114 C10.7382793,11.6716494 10.7858239,11.7975667 10.8777373,11.8903423 L12.3864887,13.4708958 L10.8777373,15.0514493 C10.7858239,15.1475449 10.7382793,15.2734622 10.7382793,15.4060002 C10.7382793,15.5385381 10.7858239,15.6644555 10.8777373,15.757231 C11.0584067,15.9461022 11.372201,15.9461022 11.5528705,15.757231 L13.0647884,14.1766776 L14.5767157,15.757231 C14.6686383,15.8533266 14.7859119,15.9030296 14.9158702,15.9030296 C15.0426527,15.9030296 15.1631021,15.8533266 15.2518489,15.757231 C15.3437715,15.6644555 15.3913161,15.5385381 15.3913161,15.4060002 C15.3913161,15.2734622 15.3437715,15.1475449 15.2518489,15.0514493 L13.7431067,13.4642655 L15.2518396,11.883712 Z M7.88391435,15.0478684 C7.83300791,15.0377461 7.72101372,14.9264012 7.71422288,14.8791607 L7.71422288,7.15251046 C7.72101372,7.10189913 7.83300791,6.9905542 7.88391435,6.98380272 L11.9700018,6.98380272 L11.9700018,9.16684148 C11.9700018,9.3456616 12.2041715,9.57847372 12.3840442,9.57847372 L14.5798023,9.57847372 L14.5798023,10.2904131 L15.4078871,10.2904131 L15.4078871,9.11960094 L12.4654945,6.20101741 L12.4247694,6.16389914 L7.59204741,6.16389914 C7.20176797,6.16389914 6.886148,6.4776894 6.886148,6.86233553 L6.886148,15.1659648 C6.886148,15.5506109 7.20176797,15.8644012 7.59204741,15.8644012 L9.78781545,15.8644012 L9.78781545,15.0478783 L7.88391435,15.0478684 Z M8.87439818,8.59134516 C8.62818153,8.59134516 8.4285835,8.79094319 8.4285835,9.03715983 C8.4285835,9.28337648 8.62818153,9.48297451 8.87439818,9.48297451 L11.0848804,9.48297451 C11.3310971,9.48297451 11.5306951,9.28337648 11.5306951,9.03715983 C11.5306951,8.79094319 11.3310971,8.59134516 11.0848804,8.59134516 L8.87439818,8.59134516 Z M8.87439818,10.2124894 C8.62818153,10.2124894 8.4285835,10.4120874 8.4285835,10.6583041 C8.4285835,10.9045207 8.62818153,11.1041187 8.87439818,11.1041187 L9.53382462,11.1041187 C9.78004126,11.1041187 9.97963929,10.9045207 9.97963929,10.6583041 C9.97963929,10.4120874 9.78004126,10.2124894 9.53382462,10.2124894 L8.87439818,10.2124894 Z" id="path-2"></path>
        <filter x="-13.7%" y="-16.4%" width="127.4%" height="132.9%" filterUnits="objectBoundingBox" id="filter-3">
            <feOffset dx="0" dy="0" in="SourceAlpha" result="shadowOffsetOuter1"></feOffset>
            <feGaussianBlur stdDeviation="1" in="shadowOffsetOuter1" result="shadowBlurOuter1"></feGaussianBlur>
            <feColorMatrix values="0 0 0 0 0   0 0 0 0 0   0 0 0 0 0  0 0 0 0.101477582 0" type="matrix" in="shadowBlurOuter1"></feColorMatrix>
        </filter>
    </defs>
    <g id="1280x1024" stroke="none" stroke-width="1" fill="none" fill-rule="evenodd">
        <g id="2C磁铁页面" transform="translate(-955.000000, -573.000000)">
            <g id="磁条" transform="translate(112.000000, 295.000000)">
                <g id="处置报废单" transform="translate(839.000000, 274.000000)">
                    <g id="Group">
                        <circle id="Oval" fill="url(#linearGradient-1)" opacity="0.099999994" cx="28" cy="28" r="28"></circle>
                        <circle id="Oval" fill="url(#linearGradient-1)" opacity="0.199999988" cx="28" cy="28" r="23.1304348"></circle>
                        <circle id="Oval" fill="url(#linearGradient-1)" cx="28" cy="28" r="18.2608696"></circle>
                        <g id="作废" transform="translate(17.043478, 18.260870)" fill-rule="nonzero">
                            <g id="Combined-Shape">
                                <use fill="black" fill-opacity="1" filter="url(#filter-3)" xlink:href="#path-2"></use>
                                <use fill="#FFFFFF" fill-rule="evenodd" xlink:href="#path-2"></use>
                            </g>
                        </g>
                    </g>
                </g>
            </g>
        </g>
    </g>
</svg>