<?xml version="1.0" encoding="UTF-8"?>
<svg width="56px" height="56px" viewBox="0 0 56 56" version="1.1" xmlns="http://www.w3.org/2000/svg" xmlns:xlink="http://www.w3.org/1999/xlink">
    <!-- Generator: Sketch 52.5 (67469) - http://www.bohemiancoding.com/sketch -->
    <title>日常运维</title>
    <desc>Created with Sketch.</desc>
    <defs>
        <linearGradient x1="23.7300647%" y1="0%" x2="73.0533245%" y2="100%" id="linearGradient-1">
            <stop stop-color="#DEABFD" offset="0%"></stop>
            <stop stop-color="#FFC0E0" offset="100%"></stop>
        </linearGradient>
        <path d="M13.1212262,19.5618559 C13.5286173,19.4892203 13.9104609,19.4183898 14.2782495,19.2968898 C16.4248795,18.5876949 17.9529641,17.1832119 18.9180127,15.1449407 C18.9984355,14.9751356 18.9474672,14.9302119 18.7868499,14.8861271 C18.3423679,14.7641441 17.9014884,14.628178 17.4613192,14.4909407 C17.0467992,14.3616864 16.9466638,13.9669068 17.2614799,13.6667542 C18.7633212,12.2347978 20.2683566,10.8062095 21.7765751,9.381 C22.0863679,9.08829661 22.4939366,9.21650847 22.5901903,9.63442373 C23.0550951,11.6535763 23.5171332,13.6733898 23.9737674,15.6944746 C24.0752981,16.1437881 23.7841776,16.3969322 23.3410148,16.2618305 C22.9236786,16.1345339 22.5019027,16.0191864 22.092203,15.8705593 C21.8931755,15.7983305 21.8298774,15.8547458 21.7537421,16.0326864 C20.6500465,18.6136271 18.8242706,20.4927712 16.2750444,21.6624661 C15.9456406,21.8136356 15.6078393,21.9442881 15.2616406,22.052339 C15.204482,22.070161 15.1567865,22.1214915 15.0982326,22.0288983 C14.6146554,21.2642542 13.9701564,20.6277203 13.41463,19.9199746 C13.3237294,19.8041186 13.2280592,19.692 13.1212008,19.5618559 L13.1212262,19.5618559 Z M19.3574207,10.2966864 C19.2017759,9.70370339 19.0095983,9.15500847 18.7364905,8.63705085 C17.7950106,6.85118644 16.3601353,5.64554237 14.4674841,4.97069492 C14.2897421,4.90731356 14.2192135,4.93332203 14.167611,5.12298305 C14.0421311,5.58434746 13.8949345,6.03976271 13.7513404,6.49599153 C13.6070359,6.95412712 13.1864017,7.05310169 12.8627569,6.6994322 C11.4845581,5.193 10.1090233,3.68417797 8.7349852,2.17388136 C8.41007188,1.81677966 8.53649049,1.43473729 9.00867653,1.33159322 C10.9726934,0.902745763 12.9369641,0.475042373 14.9011839,0.0472881356 C14.9575901,0.0348803441 15.0144318,0.024551358 15.0715941,0.0163220339 C15.4126934,-0.0323135593 15.6666469,0.254262712 15.5658774,0.585432203 C15.4362622,1.01140678 15.3024101,1.43636441 15.1543763,1.85611017 C15.0954165,2.02347458 15.1117548,2.08408475 15.2971078,2.14782203 C18.2648879,3.16840678 20.3845243,5.12107627 21.6684228,7.99070339 C21.7585877,8.19218644 21.7450909,8.28447458 21.5288626,8.36105085 C21.3431797,8.42682203 21.1879915,8.55859322 21.0436871,8.69725424 C20.5489725,9.17262712 20.052482,9.64614407 19.556093,10.1197881 C19.4987569,10.1745763 19.4377167,10.2254492 19.3574461,10.2966864 L19.3574207,10.2966864 Z M9.9278055,4.90215254 C9.12687526,5.16597458 8.40337421,5.51557627 7.74471882,5.99333898 C6.59566173,6.82683051 5.73820719,7.89330508 5.17456237,9.19955085 C5.10441438,9.36218644 5.13605074,9.40022034 5.30004228,9.43377966 C5.71933192,9.51958475 6.13443552,9.62613559 6.55068076,9.72676271 C6.96388161,9.82657627 7.09519662,10.2304068 6.8032389,10.5404237 C5.38109937,12.0508475 3.95533192,13.5578644 2.52700211,15.0624407 C2.22357717,15.3820678 1.81344609,15.2752881 1.69397886,14.8461864 C1.1344186,12.8361864 0.579069767,10.8249407 0.0250655391,8.81338983 C-0.0701479915,8.46747458 0.203264271,8.17705932 0.55187315,8.25518644 C1.04204651,8.36501695 1.53181395,8.47825424 2.01706554,8.60773729 C2.18945455,8.65375424 2.25602537,8.61475424 2.31894292,8.44873729 C3.31283721,5.82594915 5.08125159,3.90897458 7.5829852,2.66018644 C7.74281607,2.58035593 7.82493869,2.60018644 7.9450148,2.73416949 C8.58956448,3.4540678 9.24791543,4.16163559 9.9278055,4.90215254 Z M4.77597463,13.9035 C5.37463002,16.154339 6.7110444,17.7867458 8.75274419,18.8542627 C8.93736152,18.9507458 8.99680338,18.9033814 9.05928964,18.7253644 C9.1984186,18.3289576 9.35424101,17.9381949 9.51052008,17.5480424 C9.67009725,17.1493475 10.0500888,17.0832203 10.3198224,17.4094068 C11.631222,18.9951356 12.9413023,20.5821102 14.2482622,22.1715254 C14.5712981,22.564322 14.4264355,22.9081017 13.9175645,22.9906017 C11.9154165,23.3151102 9.91357294,23.641678 7.91160254,23.9671017 C7.85462156,23.9763559 7.79693023,23.9826102 7.73941649,23.9869576 C7.34397463,24.0167797 7.11135729,23.7219153 7.2497759,23.348161 C7.42747216,22.8690254 7.61441634,22.3933853 7.81050317,21.9215085 C7.8712389,21.7752203 7.84792389,21.7191864 7.70161522,21.6505424 C5.27609302,20.5134407 3.54527696,18.6950339 2.44533615,16.2572288 C2.36818605,16.0863051 2.3808203,16.0246525 2.56939535,15.9850678 C2.77712474,15.9415424 2.93236364,15.7968559 3.07641438,15.6459153 C3.578537,15.1196186 4.08005074,14.5925339 4.58359408,14.0675339 C4.63902748,14.0097712 4.67969556,13.9323305 4.77597463,13.9035 Z" id="path-2"></path>
        <filter x="-12.4%" y="-12.5%" width="124.9%" height="124.9%" filterUnits="objectBoundingBox" id="filter-3">
            <feOffset dx="0" dy="0" in="SourceAlpha" result="shadowOffsetOuter1"></feOffset>
            <feGaussianBlur stdDeviation="1" in="shadowOffsetOuter1" result="shadowBlurOuter1"></feGaussianBlur>
            <feColorMatrix values="0 0 0 0 0   0 0 0 0 0   0 0 0 0 0  0 0 0 0.101477582 0" type="matrix" in="shadowBlurOuter1"></feColorMatrix>
        </filter>
    </defs>
    <g id="1280x1024" stroke="none" stroke-width="1" fill="none" fill-rule="evenodd">
        <g id="2C磁铁页面" transform="translate(-741.000000, -359.000000)">
            <g id="磁条" transform="translate(112.000000, 295.000000)">
                <g id="资产标签打印-copy" transform="translate(629.000000, 64.000000)">
                    <g id="报增单">
                        <circle id="Oval" fill="url(#linearGradient-1)" opacity="0.099999994" cx="28" cy="28" r="28"></circle>
                        <circle id="Oval" fill="url(#linearGradient-1)" opacity="0.199999988" cx="28" cy="28" r="23.1304348"></circle>
                        <circle id="Oval" fill="url(#linearGradient-1)" cx="28" cy="28" r="18.2608696"></circle>
                        <g id="richangyunwei" transform="translate(16.000000, 16.000000)" fill-rule="nonzero">
                            <g id="Shape">
                                <use fill="black" fill-opacity="1" filter="url(#filter-3)" xlink:href="#path-2"></use>
                                <use fill="#FFFFFF" xlink:href="#path-2"></use>
                            </g>
                        </g>
                    </g>
                </g>
            </g>
        </g>
    </g>
</svg>