<?xml version="1.0" encoding="UTF-8"?>
<svg width="20px" height="20px" viewBox="0 0 20 20" version="1.1" xmlns="http://www.w3.org/2000/svg" xmlns:xlink="http://www.w3.org/1999/xlink">
    <!-- Generator: Sketch 50 (54983) - http://www.bohemiancoding.com/sketch -->
    <title>首页图标</title>
    <desc>Created with Sketch.</desc>
    <defs></defs>
    <g id="1280x1024" stroke="none" stroke-width="1" fill="none" fill-rule="evenodd">
        <g id="2C磁铁页面" transform="translate(-1180.000000, -54.000000)" fill="#FFFFFF" fill-rule="nonzero">
            <g id="首页" transform="translate(1160.000000, 45.000000)">
                <g transform="translate(20.000000, 9.000000)" id="Combined-Shape">
                    <path d="M19.8199893,7.91201629 L19.8243342,7.91201629 C19.9446354,8.0105857 20.0032122,8.16584753 19.9779992,8.31931617 C19.9527862,8.47278481 19.8476139,8.60114471 19.7020997,8.65604394 C19.5565854,8.71094317 19.3928364,8.68404123 19.2725351,8.58547181 L9.99188339,0.990631365 L0.711231659,8.5550577 C0.590930414,8.65362711 0.427181323,8.68052905 0.281667087,8.62562982 C0.136152851,8.57073059 0.0309805445,8.44237068 0.00576755954,8.28890204 C-0.0194454254,8.1354334 0.0391313635,7.98017156 0.159432616,7.88160216 L9.7181563,0.0608282281 L9.75726017,0.0608282281 L9.83546791,0.0217243585 L9.91367565,0 L9.99188339,0 L10.0700911,0.0260692464 L10.143954,0.0477936049 L10.2221617,0.0912423625 L10.2612656,0.0912423625 L19.8199893,7.91201629 Z M16.9436824,8.68105906 C17.0589157,8.68105906 17.1694293,8.72683528 17.2509115,8.80831748 C17.3323937,8.88979968 17.3781699,9.00031326 17.3781699,9.1155465 L17.3781699,19.5432451 C17.3781699,19.6584783 17.3323937,19.7689919 17.2509115,19.8504741 C17.1694293,19.9319563 17.0589157,19.9777325 16.9436824,19.9777325 L12.598808,19.9777325 C12.3588472,19.9777325 12.1643206,19.7832059 12.1643206,19.5432451 L12.1643206,13.4604209 L7.81944618,13.4604209 L7.81944618,19.5432451 C7.81944618,19.7832059 7.62491953,19.9777325 7.38495875,19.9777325 L3.04008435,19.9777325 C2.92485111,19.9777325 2.81433753,19.9319563 2.73285532,19.8504741 C2.65137312,19.7689919 2.60559689,19.6584783 2.60559689,19.5432451 L2.60559689,9.1155465 C2.60559689,8.87558571 2.80012355,8.68105905 3.04008434,8.68105905 C3.28004513,8.68105905 3.47457178,8.87558571 3.47457178,9.1155465 L3.47457178,19.1087576 L6.95047131,19.1087576 L6.95047131,13.0259335 C6.95047131,12.7859727 7.14499796,12.591446 7.38495875,12.591446 L12.598808,12.591446 C12.8387688,12.591446 13.0332955,12.7859727 13.0332955,13.0259335 L13.0332955,19.1087576 L16.509195,19.1087576 L16.509195,9.1155465 C16.509195,9.00031326 16.5549712,8.88979969 16.6364534,8.80831749 C16.7179356,8.72683529 16.8284492,8.68105906 16.9436824,8.68105906 Z M13.9022704,9.55003393 L11.2953457,9.55003393 C11.0553849,9.55003393 10.8608583,9.35550728 10.8608583,9.1155465 C10.8608583,8.87558571 11.0553849,8.68105906 11.2953457,8.68105906 L13.9022704,8.68105906 C14.1422311,8.68105906 14.3367578,8.87558571 14.3367578,9.1155465 C14.3367578,9.35550728 14.1422311,9.55003393 13.9022704,9.55003393 Z M9.55739596,9.55003393 L7.81944618,9.55003393 C7.5794854,9.55003393 7.38495875,9.35550728 7.38495875,9.1155465 C7.38495875,8.87558571 7.5794854,8.68105906 7.81944618,8.68105906 L9.55739596,8.68105906 C9.79735674,8.68105906 9.99188339,8.87558571 9.99188339,9.1155465 C9.99188339,9.35550728 9.79735674,9.55003393 9.55739596,9.55003393 Z M5.71652697,9.35885947 C5.69387306,9.33577929 5.67483097,9.30941332 5.66004361,9.28065173 C5.64757532,9.25599792 5.63879202,9.22964802 5.63397437,9.20244399 C5.63207915,9.17350916 5.63207915,9.14448133 5.63397437,9.1155465 C5.63330666,9.00005844 5.67864552,8.88905637 5.75997571,8.80706041 C5.80129708,8.7675044 5.85002266,8.73649721 5.90335657,8.71581804 C6.06515843,8.64777872 6.25200638,8.68377695 6.37694789,8.80706041 C6.4563434,8.89032288 6.50134881,9.00050857 6.50294924,9.1155465 C6.50503581,9.14447475 6.50503581,9.17351574 6.50294924,9.20244399 C6.49832352,9.22969636 6.48953084,9.25607441 6.47687999,9.28065173 C6.4672772,9.30830018 6.4541332,9.33458817 6.43777612,9.35885947 L6.38563763,9.42403259 C6.34431626,9.4635886 6.29559068,9.49459579 6.24225677,9.51527495 C6.13709348,9.56175502 6.01720961,9.56175502 5.91204632,9.51527495 C5.85871242,9.49459579 5.80998683,9.4635886 5.76866547,9.42403259 C5.75005718,9.40332041 5.73264923,9.38156047 5.71652697,9.35885947 Z"></path>
                </g>
            </g>
        </g>
    </g>
</svg>