<?xml version="1.0" encoding="UTF-8"?>
<svg width="18px" height="18px" viewBox="0 0 18 18" version="1.1" xmlns="http://www.w3.org/2000/svg" xmlns:xlink="http://www.w3.org/1999/xlink">
    <!-- Generator: Sketch 50 (54983) - http://www.bohemiancoding.com/sketch -->
    <title>用户名</title>
    <desc>Created with Sketch.</desc>
    <defs></defs>
    <g id="1280x1024" stroke="none" stroke-width="1" fill="none" fill-rule="evenodd">
        <g id="1D登录页面" transform="translate(-382.000000, -449.000000)">
            <g id="Group-8" transform="translate(210.000000, 250.000000)">
                <g id="Group-6" transform="translate(160.000000, 187.000000)">
                    <g id="输入">
                        <rect id="Rectangle-3" stroke="#BDC5CA" fill-opacity="0.5" fill="#FFFFFF" x="0.5" y="0.5" width="539" height="39" rx="4"></rect>
                        <g id="用户名-登录页" transform="translate(12.000000, 12.000000)">
                            <rect id="Rectangle-7" x="0" y="0" width="18" height="18"></rect>
                            <path d="M5.45666667,10.233 C3.31888889,11.262375 1.22222222,14.2785 1.22222222,16.32375 C1.22222222,17.215875 2.01888889,18 2.92666667,18 L14.9622222,18 C15.8711111,18 16.6677778,17.215875 16.6677778,16.32375 C16.6677778,15.764625 16.5011111,15.14475 16.23,14.5125 L16.24,14.506875 C16.2166667,14.463 16.1911111,14.425875 16.1666667,14.382 C15.46,12.819375 14.0866667,11.22975 12.6511111,10.3725 C12.062675,9.96002271 11.4450845,9.59190554 10.8033333,9.271125 C10.6788889,9.20925 10.5866667,9.165375 10.5377778,9.13275 L10.2288889,9.495 L10.1044444,9 L9.69888889,9.462375 C9.65777778,9.851625 9.94555556,9.997875 10.3422222,10.2015 C11.1611111,10.616625 13.1522222,11.638125 14.6633333,13.86225 C14.7133333,13.939875 14.7622222,14.016375 14.8088889,14.094 C14.8833333,14.20875 14.95,14.33475 15.0211111,14.45625 C15.3888889,15.136875 15.6188889,15.79725 15.6188889,16.32375 C15.6188889,16.633125 15.2944444,16.938 14.9622222,16.938 L2.92666667,16.938 C2.59555556,16.938 2.27,16.633125 2.27,16.32375 C2.27,14.833125 3.98222222,12.1185 5.90666667,11.1915" id="Shape" fill="#868686" fill-rule="nonzero"></path>
                            <path d="M9,1.035 C6.79333333,1.035 4.99777778,2.853 4.99777778,5.08725 C4.99777778,7.3215 6.79333333,9.138375 9,9.138375 C11.2066667,9.138375 13.0022222,7.3215 13.0022222,5.08725 C13.0022222,2.853 11.2066667,1.035 9,1.035 M9,10.173375 C6.22695882,10.170275 3.97972844,7.89495419 3.97666667,5.08725 C3.97666667,2.2815 6.23,0 9,0 C11.77,0 14.0233333,2.2815 14.0233333,5.08725 C14.0202716,7.89495419 11.7730412,10.170275 9,10.173375" id="Shape" fill="#868686" fill-rule="nonzero"></path>
                        </g>
                    </g>
                </g>
            </g>
        </g>
    </g>
</svg>